<?xml version="1.0" encoding="UTF-8"?>
<svg id="Layer_1" data-name="Layer 1" xmlns="http://www.w3.org/2000/svg" viewBox="0 0 226.29 288">
  <path d="m113.14,63C50.66,63,0,109.34,0,166.5s50.66,103.5,113.14,103.5,113.14-46.34,113.14-103.5-50.66-103.5-113.14-103.5Zm0,188.18c-51.13,0-92.57-37.91-92.57-84.68s41.45-84.68,92.57-84.68,92.57,37.91,92.57,84.68-41.45,84.68-92.57,84.68Z" style="fill: #30f2ac;"/>
  <path d="m38.08,84.5l10.58,63.51c1.83,10.96,1.83,22.15,0,33.12l-10.58,63.51c-3.78,22.7,13.72,43.36,36.73,43.36h76.66c23.01,0,40.51-20.66,36.73-43.36l-10.58-63.51c-1.83-10.96-1.83-22.15,0-33.12l10.58-63.51c3.78-22.7-13.72-43.36-36.73-43.36h-76.66c-23.01,0-40.51,20.66-36.73,43.36Z" style="fill: #30f2ac;"/>
  <path d="m111.86,30.86h-56.24c-6.96,0-13.51,4.01-17.68,10.81l-6.29,10.26c-5.07,8.27-.25,20.07,8.21,20.07h144.02c8.45,0,13.28-11.8,8.21-20.07l-6.29-10.26c-4.17-6.81-10.72-10.81-17.68-10.81h-56.24Z" style="fill: #8a99e6;"/>
  <path d="m113.14,0h17.77c7.82,0,14.76,5,17.23,12.42l6.15,18.44h-82.29l6.15-18.44c2.47-7.42,9.41-12.42,17.23-12.42h17.77Z" style="fill: #b3d9ff;"/>
  <rect x="92.57" y="5.14" width="41.14" height="5.14" rx="2.57" ry="2.57" style="fill: #5968b3;"/>
  <path d="m62.3,96.97l7.25,54.39c1.62,12.17,1.36,24.51-.77,36.6l-11.4,64.61c-.5,2.81.62,5.67,2.89,7.4l.19.14c4.46,3.4,10.95.99,12.1-4.5l13.31-63.24c3.15-14.96,3.4-30.38.75-45.43l-9.23-52.3c-.99-5.63-7.6-8.21-12.15-4.75h0c-2.18,1.66-3.3,4.37-2.94,7.08Z" style="fill: #99ffdb;"/>
  <path d="m86.87,17.1l-4.59,13.76h5.14l4.07-12.22c.53-1.58-.65-3.21-2.31-3.21h0c-1.05,0-1.98.67-2.31,1.67Z" style="fill: #d9ebff;"/>
  <path d="m55.66,38.32l-8.81,17.61c-1.01,2.02-1.01,4.39,0,6.41l1.09,2.19c.71,1.42,2.17,2.32,3.76,2.32h1.76c2.32,0,3.82-2.44,2.79-4.51h0c-1.01-2.02-1.01-4.39,0-6.41l6.93-13.86c1.4-2.79-.63-6.08-3.76-6.08h0c-1.59,0-3.05.9-3.76,2.32Z" style="fill: #b3bfff;"/>
</svg>