<?xml version="1.0" encoding="UTF-8"?>
<svg id="Layer_1" data-name="Layer 1" xmlns="http://www.w3.org/2000/svg" viewBox="0 0 288 288">
  <path d="m144,54C81.51,54,0,104.37,0,166.5s81.51,112.5,144,112.5,144-50.37,144-112.5S206.49,54,144,54Zm0,195.65c-51.13,0-117-32.32-117-83.15s65.87-83.15,117-83.15,117,32.32,117,83.15-65.87,83.15-117,83.15Z" style="fill: #8a99e6;"/>
  <path d="m48.64,84.5l10.58,63.51c1.83,10.96,1.83,22.15,0,33.12l-10.58,63.51c-3.78,22.7,13.72,43.36,36.73,43.36h117.13c23.01,0,40.51-20.66,36.73-43.36l-10.58-63.51c-1.83-10.96-1.83-22.15,0-33.12l10.58-63.51c3.78-22.7-13.72-43.36-36.73-43.36h-117.13c-23.01,0-40.51,20.66-36.73,43.36Z" style="fill: #8a99e6;"/>
  <path d="m142.71,30.86h-76.54c-6.96,0-13.51,4.01-17.68,10.81l-6.29,10.26c-5.07,8.27-.25,20.07,8.21,20.07h184.49c8.45,0,13.28-11.8,8.21-20.07l-6.29-10.26c-4.17-6.81-10.72-10.81-17.68-10.81h-76.41Z" style="fill: #30f2ac;"/>
  <path d="m66.22,38.32l-8.81,17.61c-1.01,2.02-1.01,4.39,0,6.41l1.09,2.19c.71,1.42,2.17,2.32,3.76,2.32h1.76c2.32,0,3.82-2.44,2.79-4.51h0c-1.01-2.02-1.01-4.39,0-6.41l6.93-13.86c1.4-2.79-.63-6.08-3.76-6.08h0c-1.59,0-3.05.9-3.76,2.32Z" style="fill: #99ffdb;"/>
  <path d="m72.86,96.97l7.25,54.39c1.62,12.17,1.36,24.51-.77,36.6l-11.4,64.61c-.5,2.81.62,5.67,2.89,7.4l.19.14c4.46,3.4,10.95.99,12.1-4.5l13.31-63.24c3.15-14.96,3.4-30.38.75-45.43l-9.23-52.3c-.99-5.63-7.6-8.21-12.15-4.75h0c-2.18,1.66-3.3,4.37-2.94,7.08Z" style="fill: #b3bfff;"/>
  <path d="m144,0h22.5c7.82,0,14.76,5,17.23,12.42l6.15,18.44h-91.75l6.15-18.44c2.47-7.42,9.41-12.42,17.23-12.42h22.5Z" style="fill: #8a99e6;"/>
  <rect x="118.7" y="5.14" width="50.61" height="5.14" rx="2.57" ry="2.57" style="fill: #5968b3;"/>
  <path d="m113,17.1l-4.59,13.76h5.14l4.07-12.22c.53-1.58-.65-3.21-2.31-3.21h0c-1.05,0-1.98.67-2.31,1.67Z" style="fill: #b3bfff;"/>
</svg>