<?xml version="1.0" encoding="UTF-8"?>
<svg id="Layer_1" data-name="Layer 1" xmlns="http://www.w3.org/2000/svg" viewBox="0 0 226.29 288">
  <path d="m113.14,63C50.66,63,0,109.34,0,166.5s50.66,103.5,113.14,103.5,113.14-46.34,113.14-103.5-50.66-103.5-113.14-103.5Zm0,188.18c-51.13,0-92.57-37.91-92.57-84.68s41.45-84.68,92.57-84.68,92.57,37.91,92.57,84.68-41.45,84.68-92.57,84.68Z" style="fill: #30f2ac;"/>
  <path d="m38.08,84.5l10.58,63.51c1.83,10.96,1.83,22.15,0,33.12l-10.58,63.51c-3.78,22.7,13.72,43.36,36.73,43.36h76.66c23.01,0,40.51-20.66,36.73-43.36l-10.58-63.51c-1.83-10.96-1.83-22.15,0-33.12l10.58-63.51c3.78-22.7-13.72-43.36-36.73-43.36h-76.66c-23.01,0-40.51,20.66-36.73,43.36Z" style="fill: #30f2ac;"/>
  <path d="m113.14,30.86h-56.24c-6.96,0-13.51,4.01-17.68,10.81l-6.29,10.26c-5.07,8.27-.25,20.07,8.21,20.07h144.02c8.45,0,13.28-11.8,8.21-20.07l-6.29-10.26c-4.17-6.81-10.72-10.81-17.68-10.81h-56.24Z" style="fill: #8a99e6;"/>
  <path d="m113.14,0h17.77c7.82,0,14.76,5,17.23,12.42l6.15,18.44h-82.29l6.15-18.44c2.47-7.42,9.41-12.42,17.23-12.42h17.77Z" style="fill: #b3d9ff;"/>
  <rect x="92.57" y="5.14" width="41.14" height="5.14" rx="2.57" ry="2.57" style="fill: #5968b3;"/>
  <path d="m62.11,95.52l6.5,48.78c2.25,16.84,1.89,33.92-1.07,50.65l-10.43,59.1c-.34,1.94.28,3.92,1.67,5.31l.21.21c3.38,3.38,9.17,1.66,10.15-3.02l11.68-55.49c4.36-20.7,4.71-42.04,1.03-62.88l-7.85-44.5c-.85-4.8-6.75-6.66-10.19-3.21h0c-1.33,1.33-1.96,3.2-1.71,5.06Z" style="fill: #66ffc9;"/>
  <path d="m86.87,17.1l-4.59,13.76h5.14l4.07-12.22c.53-1.58-.65-3.21-2.31-3.21h0c-1.05,0-1.98.67-2.31,1.67Z" style="fill: #d9ebff;"/>
  <path d="m55.87,37.91l-8.65,17.31c-1.24,2.47-1.24,5.39,0,7.86l.94,1.88c.58,1.17,1.78,1.91,3.09,1.91h1.35c1.94,0,3.21-2.05,2.34-3.78h0c-1.24-2.47-1.24-5.39,0-7.86l7.11-14.22c1.15-2.29-.52-4.99-3.09-4.99h0c-1.31,0-2.5.74-3.09,1.91Z" style="fill: #b3bfff;"/>
</svg>